# xmcd CD database file
#
# Track frame offsets:
#	150
#	25671
#	46696
#	67932
#	98301
#	121711
#	149361
#	171506
#	189339
#	215637
#
# Disc length: 3099 seconds
#
# Revision: 0
# Processed by: cddbd v1.5.2PL0 Copyright (c) Steve Scherf et al.
# Submitted via: CDex 1.51
#
DISCID=7c0c190a
DTITLE=Kat Parra - Birds in fligth
DYEAR=2006
DGENRE=Jazz
TTITLE0=Mais Que Nada
TTITLE1=Dame La Llave
TTITLE2=Softly As In A Morning Sunrise
TTITLE3=Alfonsina Y El Mar
TTITLE4=Birds In Flight
TTITLE5=Caravan
TTITLE6=Óleo De Una Mujer Con Sombrero
TTITLE7=These Old Feelings
TTITLE8=Kuando El Rey Nimrod
TTITLE9=Quizás Porque
EXTD=YEAR: 2006
EXTT0=
EXTT1=
EXTT2=
EXTT3=
EXTT4=
EXTT5=
EXTT6=
EXTT7=
EXTT8=
EXTT9=
PLAYORDER=
